<svg xmlns:dc="http://purl.org/dc/elements/1.1/" xmlns:cc="http://creativecommons.org/ns#" xmlns:rdf="http://www.w3.org/1999/02/22-rdf-syntax-ns#" xmlns:svg="http://www.w3.org/2000/svg" xmlns="http://www.w3.org/2000/svg" xmlns:sodipodi="http://sodipodi.sourceforge.net/DTD/sodipodi-0.dtd" xmlns:inkscape="http://www.inkscape.org/namespaces/inkscape" version="1.1" x="0px" y="0px" viewBox="17.99 5 60.01 90.01"><g transform="translate(0,-952.36218)"><path style="font-size:medium;font-style:normal;font-variant:normal;font-weight:normal;font-stretch:normal;text-indent:0;text-align:start;text-decoration:none;line-height:normal;letter-spacing:normal;word-spacing:normal;text-transform:none;direction:ltr;block-progression:tb;writing-mode:lr-tb;text-anchor:start;baseline-shift:baseline;opacity:1;color:#000000;fill:#5cf4ff;fill-opacity:1;stroke:none;stroke-width:6;marker:none;visibility:visible;display:inline;overflow:visible;enable-background:accumulate;font-family:Sans;-inkscape-font-specification:Sans" d="M 74.90625 5 A 3.0003 3.0003 0 0 0 72.53125 6.3125 C 68.387213 12.39819 63.133918 16.31333 57.25 20.5625 A 3.0003 3.0003 0 0 0 56.03125 22.46875 L 54.71875 29.9375 L 53.71875 27.75 A 3.0003 3.0003 0 0 0 49.1875 26.625 C 37.375243 35.699254 28.84943 49.555069 30.9375 77.5625 C 27.148382 81.753396 23.164174 85.844978 18.9375 89.8125 A 3.0065034 3.0065034 0 1 0 23.0625 94.1875 C 27.706464 89.828341 32.077384 85.326716 36.21875 80.6875 C 51.902487 78.278258 62.747771 70.771801 69.15625 58.75 C 75.815272 46.25821 78 29.31532 78 8 A 3.0003 3.0003 0 0 0 74.90625 5 z M 71.75 16.4375 C 71.16315 33.15259 68.849419 46.51606 63.84375 55.90625 C 58.436792 66.04925 50.203361 72.10065 36.875 74.46875 C 35.687985 52.20915 41.233031 41.51722 49.90625 33.84375 L 53.28125 41.25 A 3.0003 3.0003 0 0 0 58.96875 40.53125 L 61.78125 24.625 C 65.184755 22.15445 68.587174 19.56845 71.75 16.4375 z M 55.0625 46.9375 A 3.0003 3.0003 0 0 0 52.40625 48.46875 C 49.375657 53.67655 45.368221 59.1115 41.59375 64.1875 A 3.0031165 3.0031165 0 0 0 46.40625 67.78125 C 50.187401 62.69635 54.322289 57.1218 57.59375 51.5 A 3.0003 3.0003 0 0 0 55.0625 46.9375 z " transform="translate(0,952.36218)"/></g></svg>
