<?xml version="1.0" encoding="UTF-8" standalone="no"?>
<!-- Created with Inkscape (http://www.inkscape.org/) -->

<svg
   width="87.214211mm"
   height="70.499557mm"
   viewBox="0 0 87.214211 70.499557"
   version="1.1"
   id="svg5"
   inkscape:version="1.1.2 (b8e25be833, 2022-02-05)"
   sodipodi:docname="Lines.svg"
   xmlns:inkscape="http://www.inkscape.org/namespaces/inkscape"
   xmlns:sodipodi="http://sodipodi.sourceforge.net/DTD/sodipodi-0.dtd"
   xmlns="http://www.w3.org/2000/svg"
   xmlns:svg="http://www.w3.org/2000/svg">
  <sodipodi:namedview
     id="namedview7"
     pagecolor="#ffffff"
     bordercolor="#666666"
     borderopacity="1.0"
     inkscape:pageshadow="2"
     inkscape:pageopacity="0"
     inkscape:pagecheckerboard="0"
     inkscape:document-units="mm"
     showgrid="false"
     inkscape:zoom="2"
     inkscape:cx="219.25"
     inkscape:cy="220.75"
     inkscape:window-width="1920"
     inkscape:window-height="1010"
     inkscape:window-x="0"
     inkscape:window-y="34"
     inkscape:window-maximized="1"
     inkscape:current-layer="layer1"
     units="mm"
     fit-margin-top="0"
     fit-margin-left="0"
     fit-margin-right="0"
     fit-margin-bottom="0" />
  <defs
     id="defs2" />
  <g
     inkscape:label="Layer 1"
     inkscape:groupmode="layer"
     id="layer1"
     transform="translate(-0.1001338,-0.0172941)">
    <path
       style="fill:#a2fbdc;stroke-width:0.264583"
       d="m 19.845648,70.146108 c -3.280707,-0.59364 -6.716208,-2.04176 -9.8780816,-4.16377 -4.0914,-2.74585 -9.09468892,-7.77704 -9.69580392,-9.74988 -0.890039,-2.92107 1.82945402,-5.78661 4.74629702,-5.00119 0.7754619,0.20881 1.5872909,0.89792 3.5711129,3.03127 3.0232766,3.25115 5.3479716,5.08338 8.2575606,6.50827 6.1146,2.99446 11.65765,2.32924 17.533152,-2.10413 2.186133,-1.64955 3.864944,-3.34276 7.503984,-7.56834 2.250428,-2.61316 5.493918,-5.55367 7.988618,-7.24239 1.77383,-1.200744 5.79668,-3.060624 7.85236,-3.630384 2.64029,-0.73179 8.97758,-0.68342 11.64167,0.0889 4.9786,1.44321 9.51843,4.276714 13.90677,8.679834 3.30773,3.31888 4.23518,4.82575 4.00883,6.51333 -0.27375,2.04098 -1.81352,3.40858 -3.83968,3.41034 -1.57957,10e-4 -2.33058,-0.46619 -4.10294,-2.55442 -3.08731,-3.63752 -7.23886,-6.69189 -10.82971,-7.96761 -2.53498,-0.9006 -6.21262,-1.09819 -8.64711,-0.46459 -3.79663,0.98811 -7.3203,3.38216 -11.14744,7.5738 -4.89763,5.36408 -8.808458,9.09786 -11.165318,10.65985 -5.628926,3.73052 -11.630729,5.08014 -17.704271,3.98115 z m 0,-39.687514 c -3.280707,-0.59363 -6.716208,-2.04175 -9.8780816,-4.16377 -4.0914,-2.74585 -9.09468892,-7.77704 -9.69580392,-9.74987 -0.890039,-2.92108 1.82945402,-5.78662 4.74629702,-5.0012 0.7754619,0.20882 1.5872909,0.89792 3.5711129,3.03127 3.0232766,3.25115 5.3479716,5.08338 8.2575606,6.50827 6.1146,2.99446 11.65765,2.32925 17.533152,-2.10413 2.186133,-1.64955 3.864944,-3.34276 7.503984,-7.56834 2.250428,-2.6131501 5.493918,-5.5536601 7.988618,-7.2423801 1.77383,-1.20074 5.79668,-3.060626 7.85236,-3.630383 2.64029,-0.731787 8.97758,-0.683416 11.64167,0.08886 4.9786,1.443203 9.51843,4.276713 13.90677,8.6798333 3.30773,3.3188698 4.23518,4.8257398 4.00883,6.5133298 -0.27375,2.04098 -1.81352,3.40858 -3.83968,3.41034 -1.57957,0.001 -2.33058,-0.4662 -4.10294,-2.55442 -3.08731,-3.63753 -7.23886,-6.6918898 -10.82971,-7.9676101 -2.53498,-0.90061 -6.21262,-1.0982 -8.64711,-0.4646 -3.79663,0.9881103 -7.3203,3.3821601 -11.14744,7.5738001 -4.89763,5.36408 -8.808458,9.09786 -11.165318,10.65985 -5.628926,3.73053 -11.630729,5.08015 -17.704271,3.98116 z"
       id="path5708" />
  </g>
</svg>
